<svg width="280" height="40" viewBox="0 0 280 40" fill="none" xmlns="http://www.w3.org/2000/svg">
<rect x="279.5" y="0.5" width="39" height="279" rx="19.5" transform="rotate(90 279.5 0.5)" fill="white" stroke="black"/>
<rect x="274.794" y="7.35718" width="1.28572" height="268.412" rx="0.642862" transform="rotate(90 274.794 7.35718)" fill="white" stroke="black"/>
<rect x="154.794" y="15.3572" width="10.4286" height="30.7647" rx="5.21428" transform="rotate(90 154.794 15.3572)" fill="white" stroke="black"/>
<rect x="50.0879" y="13.0715" width="13.8571" height="14.2941" rx="6.92857" transform="rotate(90 50.0879 13.0715)" fill="white" stroke="black"/>
<rect x="65.3828" y="17.6428" width="5.85714" height="6.05882" rx="2.92857" transform="rotate(90 65.3828 17.6428)" fill="white" stroke="black"/>
<rect x="177.147" y="17.6428" width="5.85714" height="6.05882" rx="2.92857" transform="rotate(90 177.147 17.6428)" fill="white" stroke="black"/>
<rect x="195.971" y="17.6428" width="5.85714" height="6.05882" rx="2.92857" transform="rotate(90 195.971 17.6428)" fill="white" stroke="black"/>
<rect x="214.794" y="17.6428" width="5.85714" height="6.05882" rx="2.92857" transform="rotate(90 214.794 17.6428)" fill="white" stroke="black"/>
<rect x="243.029" y="17.6428" width="5.85714" height="6.05882" rx="2.92857" transform="rotate(90 243.029 17.6428)" fill="white" stroke="black"/>
<rect x="186.559" y="17.6428" width="5.85714" height="6.05882" rx="2.92857" transform="rotate(90 186.559 17.6428)" fill="white" stroke="black"/>
<rect x="205.383" y="17.6428" width="5.85714" height="6.05882" rx="2.92857" transform="rotate(90 205.383 17.6428)" fill="white" stroke="black"/>
<rect x="233.617" y="17.6428" width="5.85714" height="6.05882" rx="2.92857" transform="rotate(90 233.617 17.6428)" fill="white" stroke="black"/>
<rect x="224.206" y="17.6428" width="5.85714" height="6.05882" rx="2.92857" transform="rotate(90 224.206 17.6428)" fill="white" stroke="black"/>
<rect x="252.441" y="17.6428" width="5.85714" height="6.05882" rx="2.92857" transform="rotate(90 252.441 17.6428)" fill="white" stroke="black"/>
<rect x="274.794" y="31.3572" width="1.28572" height="269.588" rx="0.642862" transform="rotate(90 274.794 31.3572)" fill="white" stroke="black"/>
</svg>
