<svg width="30" height="30" viewBox="0 0 30 30" fill="none" xmlns="http://www.w3.org/2000/svg">
<rect x="0.5" y="0.5" width="29" height="29" rx="3.5" fill="white" stroke="#B2B2B2"/>
<path d="M23.6007 6.41297C23.0683 5.88055 22.2082 5.88055 21.6758 6.41297L15 13.0751L8.32423 6.39932C7.79181 5.86689 6.93174 5.86689 6.39932 6.39932C5.86689 6.93174 5.86689 7.79181 6.39932 8.32423L13.0751 15L6.39932 21.6758C5.86689 22.2082 5.86689 23.0683 6.39932 23.6007C6.93174 24.1331 7.79181 24.1331 8.32423 23.6007L15 16.9249L21.6758 23.6007C22.2082 24.1331 23.0683 24.1331 23.6007 23.6007C24.1331 23.0683 24.1331 22.2082 23.6007 21.6758L16.9249 15L23.6007 8.32423C24.1195 7.80546 24.1195 6.93174 23.6007 6.41297Z" fill="#E9686A"/>
</svg>
