<svg width="245" height="462" viewBox="0 0 245 462" fill="none" xmlns="http://www.w3.org/2000/svg">
<rect x="-0.5" y="0.5" width="8" height="47" rx="4" transform="matrix(-1 0 0 1 244 83)" fill="white" stroke="black"/>
<rect x="-0.5" y="0.5" width="8" height="47" rx="4" transform="matrix(-1 0 0 1 244 147)" fill="white" stroke="black"/>
<rect x="-0.5" y="0.5" width="8" height="31" rx="4" transform="matrix(-1 0 0 1 8 82)" fill="white" stroke="black"/>
<rect x="-0.5" y="0.5" width="236" height="461" rx="28.5" transform="matrix(-1 0 0 1 239 0)" fill="white" stroke="black"/>
<rect x="-0.5" y="0.5" width="222" height="448" rx="28.5" transform="matrix(-1 0 0 1 234 5)" stroke="black"/>
<rect x="144.5" y="24.5" width="6" height="44" rx="3" transform="rotate(90 144.5 24.5)" stroke="black"/>
<rect x="227.5" y="47.5" width="351" height="207" transform="rotate(90 227.5 47.5)" stroke="black"/>
<rect x="86.5" y="20.5" width="12" height="12" rx="6" transform="rotate(90 86.5 20.5)" stroke="black"/>
<rect x="140.5" y="406.5" width="34" height="34" rx="17" transform="rotate(90 140.5 406.5)" stroke="black"/>
<rect x="170.5" y="19.5" width="14" height="14" rx="7" transform="rotate(90 170.5 19.5)" stroke="black"/>
</svg>
