<svg width="242" height="32" viewBox="0 0 242 32" fill="none" xmlns="http://www.w3.org/2000/svg">
<path opacity="0.5" fill-rule="evenodd" clip-rule="evenodd" d="M44.3831 4.63268C45.9152 3.52915 47.4473 2.42562 48.9795 1.32228C49.2969 1.0938 49.5489 0.904516 49.7576 0.747758C50.6619 0.0684956 50.7531 0 51.8341 0C51.9554 0 52.0892 0.000872646 52.238 0.00184321C52.4244 0.00305911 52.6344 0.0044287 52.8729 0.0044287H54.8709C50.4882 4.40205 46.0952 8.78992 41.7022 13.1777C39.5685 15.3089 37.4348 17.4401 35.3024 19.5723C35.2269 19.6478 35.1065 19.7779 34.9674 19.9284C34.7299 20.1851 34.4377 20.501 34.2199 20.7061C34.1707 20.656 34.1232 20.605 34.0843 20.5633C34.0687 20.5465 34.0545 20.5312 34.0421 20.5182C33.976 20.4486 33.9101 20.379 33.8443 20.3096C33.5934 20.0447 33.3435 19.7809 33.0849 19.5223L19.6134 6.05087H23.8308C24.8653 6.05087 25.2674 6.03978 25.6206 6.16579C25.9832 6.29517 26.2942 6.56908 27.1852 7.14792L31.8354 10.1702C31.972 10.259 32.1257 10.3679 32.2906 10.4848C32.9397 10.9447 33.7637 11.5286 34.416 11.5039C35.0396 11.4805 35.8003 10.879 36.4083 10.3982C36.5751 10.2664 36.7304 10.1436 36.8683 10.0443C39.3735 8.2409 41.8783 6.43678 44.3831 4.63268ZM136.704 31.9C142.128 31.9 145.263 29.5402 147.588 26.335L142.445 22.6725C140.966 24.4687 139.451 25.6657 136.88 25.6657C133.429 25.6657 130.998 22.7782 130.998 19.0796V19.0093C130.998 15.417 133.429 12.458 136.88 12.458C139.24 12.458 140.86 13.6203 142.269 15.3462L147.412 11.3661C145.228 8.37289 141.988 6.25913 136.951 6.25913C129.484 6.25913 123.99 11.895 123.99 19.0796V19.1504C123.99 26.5116 129.66 31.9 136.704 31.9ZM0 31.407V6.7524H18.2798V10.6269H4.3319V17.0371H16.6949V20.9109H4.3319V27.5331H18.4563V31.407H0ZM54.8683 31.407H50.5364V6.75248H60.2574C66.0337 6.75248 69.626 10.0278 69.626 14.9943V15.0645C69.626 20.5941 65.1884 23.4822 59.7645 23.4822H54.8683V31.407ZM54.8683 10.6973V19.573H59.905C63.181 19.573 65.2239 17.7414 65.2239 15.1703V15.1C65.2239 12.2119 63.1456 10.6973 59.905 10.6973H54.8683ZM72.2128 31.407H90.6684V27.5326H76.5447V20.911H88.9077V17.0365H76.5447V10.627H90.4926V6.75248H72.2128V31.407ZM98.4006 31.407H94.0687V6.75248H105.058C108.157 6.75248 110.587 7.66796 112.173 9.218C113.475 10.5561 114.215 12.3877 114.215 14.5362V14.6065C114.215 18.6568 111.785 21.0875 108.368 22.0732L115.025 31.407H109.883L103.825 22.8128H98.4006V31.407ZM98.4007 10.6973V18.9745H104.741C107.84 18.9745 109.813 17.3542 109.813 14.8533V14.7831C109.813 12.141 107.91 10.6973 104.706 10.6973H98.4007ZM170.552 31.407H150.546V6.75248H170.375V12.5288H157.309V16.297H169.143V21.686H157.309V25.5953H170.552V31.407ZM174.074 31.407H180.907V24.3629H184.323C190.416 24.3629 194.889 21.2982 194.889 15.4517V15.3815C194.889 9.95759 190.874 6.75248 184.675 6.75248H174.074V31.407ZM180.907 19.0092V12.4933H184.147C186.577 12.4933 188.092 13.5853 188.092 15.6984V15.7693C188.092 17.7059 186.577 19.0092 184.182 19.0092H180.907ZM210.633 31.407H203.8V12.7401H196.439V6.75248H218.03V12.7401H210.633V31.407ZM221.023 31.407H241.029V25.5953H227.786V21.686H239.62V16.297H227.786V12.5288H240.852V6.75248H221.023V31.407ZM40.673 26.2438L40.6724 26.2433L40.6625 26.2348C38.7042 24.5552 36.739 22.8696 35.1766 21.5277C35.3644 21.3442 35.5413 21.152 35.7179 20.9601C35.8733 20.7912 36.0285 20.6226 36.1907 20.4604L39.4819 17.1705L45.5903 25.6698C45.8192 25.9876 46.0087 26.2398 46.1656 26.4486C46.5158 26.9145 46.7036 27.1644 46.8034 27.4455C46.9188 27.7707 46.9164 28.1377 46.9114 28.9291C46.9102 29.1153 46.9088 29.325 46.9088 29.5632V31.5954C45.2941 30.2074 42.9943 28.2348 40.683 26.2524L40.6793 26.2492L40.673 26.2438ZM28.1334 25.9294L28.132 25.9306L28.128 25.934C25.6939 28.0219 23.2326 30.1331 21.5313 31.5957V29.5629C21.5313 29.3239 21.5299 29.1135 21.5287 28.9268C21.5236 28.1371 21.5212 27.7706 21.6364 27.4458C21.7361 27.1645 21.924 26.9145 22.2745 26.448C22.4313 26.2394 22.6206 25.9875 22.8491 25.6701C23.5597 24.6828 24.7379 23.0428 25.9538 21.3502L25.9575 21.3451L25.9614 21.3397C27.0285 19.8542 28.124 18.3292 28.9576 17.1702L32.1975 20.4101C32.4483 20.6604 32.692 20.9181 32.9354 21.1756C33.0009 21.2448 33.0664 21.3141 33.1319 21.3831L33.2661 21.5255C31.7978 22.7863 29.9735 24.3511 28.1334 25.9294Z" fill="#999999"/>
</svg>
