<svg width="106" height="63" viewBox="0 0 106 63" fill="none" xmlns="http://www.w3.org/2000/svg">
<path opacity="0.3" fill-rule="evenodd" clip-rule="evenodd" d="M87.9533 4.6039C75.8655 13.3084 63.7796 22.0167 51.6918 30.7193C49.7747 32.1003 46.7286 34.9987 44.3474 35.0896C41.898 35.1843 38.6398 32.4091 36.6204 31.0963L22.697 22.047C17.4326 18.6258 18.931 18.7622 12.6531 18.7622H0.0273438L40.3636 59.0985C41.3411 60.076 42.2769 61.08 43.2279 62.0802C43.3586 62.2166 43.5556 62.4307 43.7621 62.6428C44.7945 61.6691 46.3895 59.8619 47.0014 59.2482C66.534 39.7194 86.0969 20.2209 105.595 0.657977H99.613C98.3268 0.657977 97.319 0.642822 96.5006 0.642822C92.5168 0.642822 93.0226 0.955389 87.9533 4.6039Z" fill="#04D684"/>
</svg>
