<svg width="72" height="72" viewBox="0 0 72 72" fill="none" xmlns="http://www.w3.org/2000/svg">
<path fill-rule="evenodd" clip-rule="evenodd" d="M36 0C16.128 0 0 16.128 0 36C0 55.872 16.128 72 36 72C55.872 72 72 55.872 72 36C72 16.128 55.872 0 36 0ZM7.2 36C7.2 20.088 20.088 7.2 36 7.2C42.66 7.2 48.78 9.468 53.64 13.284L13.284 53.64C9.468 48.78 7.2 42.66 7.2 36ZM18.36 58.716C23.22 62.532 29.34 64.8 36 64.8C51.912 64.8 64.8 51.912 64.8 36C64.8 29.34 62.532 23.22 58.716 18.36L18.36 58.716Z" fill="#E9686A"/>
</svg>
