<svg width="36" height="30" viewBox="0 0 36 30" fill="none" xmlns="http://www.w3.org/2000/svg">
<rect x="0.5" y="0.5" width="29" height="29" rx="3.5" fill="white" stroke="#B2B2B2"/>
<path fill-rule="evenodd" clip-rule="evenodd" d="M30.6523 7.44678C26.9882 10.0853 23.3247 12.725 19.6606 15.3629C19.0795 15.7816 18.1562 16.6601 17.4344 16.6877C16.6919 16.7164 15.7043 15.8751 15.0922 15.4772L10.8717 12.7342C9.27591 11.6971 9.73012 11.7385 7.82716 11.7385H4L16.2268 23.9653C16.5231 24.2616 16.8068 24.5659 17.095 24.8691C17.1347 24.9105 17.1944 24.9754 17.257 25.0397C17.5699 24.7445 18.0534 24.1967 18.2389 24.0107C24.1596 18.0911 30.0896 12.1806 36 6.25069H34.1866C33.7967 6.25069 33.4912 6.24609 33.2432 6.24609C32.0356 6.24609 32.1889 6.34084 30.6523 7.44678Z" fill="#04D684"/>
</svg>
